# xmcd
#
# Track frame offsets:
#	150
#	14378
#	28787
#	45905
#	57345
#	67294
#	80370
#	91414
#	104644
#	115895
#	125777
#	136335
#	150343
#	161601
#	176608
#	193769
#	203528
#	212471
#	223370
#	235786
#	248267
#	261466
#	271243
#	282828
#	293542
#	304761
#	316386
#	327435
#
# Disc length: 4532 seconds
#
# Revision: 0
# Processed by: cddbd v1.5PL3 Copyright (c) Steve Scherf et al.
# Submitted via: audiograbber 1.80
#
DISCID=9911b21c
DTITLE=frankie laine - `I Believe cd4
DYEAR=1900
DGENRE=
TTITLE0=God's Gonna Take The Saints To Heaven 
TTITLE1=Ain't It A Pity And A Shame (& The Four Lads) 
TTITLE2=Let Me Be Ready, Lord (& The Four Lads) 
TTITLE3=Wa, Hoo! (& The Four Lads) 
TTITLE4=I Feel Like My Time Ain't Long (& Four Lads) 
TTITLE5=Rain, Rain, Rain (& The Four Lads) 
TTITLE6=My Friend 
TTITLE7=Your Heart, My Heart (Sehnsucht) 
TTITLE8=In The Beginning 
TTITLE9=High Society (& Jo Stafford) 
TTITLE10=Back Where I Belong (& Jo Stafford) 
TTITLE11=I Can't Give You Anything But Love, Baby 
TTITLE12=Keepin' Out Of Mischief Now 
TTITLE13=Out Of Nowhere 
TTITLE14=You Are Too Beautiful 
TTITLE15=Mona Lisa 
TTITLE16=Bubbles 
TTITLE17=Make Me A Child Again 
TTITLE18=Your Love 
TTITLE19=The Tarrier Song 
TTITLE20=Cool Water 
TTITLE21=Walking The Night Away 
TTITLE22=Strange Lady In Town 
TTITLE23=Bring Your Smile Along 
TTITLE24=If Spring Never Comes 
TTITLE25=Never Come Sunday 
TTITLE26=Mama Mia 
TTITLE27=My Little One 
EXTD=
EXTT0=
EXTT1=
EXTT2=
EXTT3=
EXTT4=
EXTT5=
EXTT6=
EXTT7=
EXTT8=
EXTT9=
EXTT10=
EXTT11=
EXTT12=
EXTT13=
EXTT14=
EXTT15=
EXTT16=
EXTT17=
EXTT18=
EXTT19=
EXTT20=
EXTT21=
EXTT22=
EXTT23=
EXTT24=
EXTT25=
EXTT26=
EXTT27=
PLAYORDER=
